{"title":"On.the.Job.2013.LIMITED.1080p.BluRay.x264-ROVERS","uid":11043967,"size":8526518176,"categoryP":"video","categoryS":"hd___movies","magnet":"?xt=urn:btih:275a914bc692a85c95f1f7f1a356ed55d510a31d&amp;dn=On.the.Job.2013.LIMITED.1080p.BluRay.x264-ROVERS&amp;tr=udp%3A%2F%2Ftracker.openbittorrent.com%3A80&amp;tr=udp%3A%2F%2Fopen.demonii.com%3A1337&amp;tr=udp%3A%2F%2Ftracker.coppersurfer.tk%3A6969&amp;tr=udp%3A%2F%2Fexodus.desync.com%3A6969","seeders":0,"leechers":1,"uploader":"p0gi","files":-1,"time":1410921423,"description":"Movie: On the Job\nAKA: OTJ: On the Job / On the Job Training / Symvolaia thanatou\nGenres: Action, Crime, Drama, Thriller\nDirector: Erik Matti\nScreenwriters: Erik Matti, Michiko Yamamoto \nCinematographer: Ricardo Buhay III\nStars: Joel Torre, Gerald Anderson, Piolo Pascual, Angel Aquino, Michael De Mesa\nRelease Dates: 28 Aug 2013 (Philippines)  /  ...  /  27 Sep 2013 (USA &amp; Canada [limited])  /  ...\nSource: Blu-ray (thanks to ROVERS)\nCountry: Philippines\nLanguages: Filipino + Tagalog + English\nSubtitles: English (embedded)\n\nGeneral\n=======\nComplete name                  : On.The.Job.2013.LIMITED.1080p.BluRay.x264-ROVERS.mkv\nFormat                         : Matroska\nFormat version                 : Version 4 / Version 2\nFile size                      : 7.94 GiB\nDuration                       : 1h 55mn\nOverall bit rate               : 9 859 Kbps\n\nVideo\n=====\nID                             : 1\nFormat                         : AVC\nFormat/Info                    : Advanced Video Codec\nFormat profile                 : &lt;a class=&quot;__cf_email__&quot; href=&quot;/cdn-cgi/l/email-protection&quot; data-cfemail=&quot;bbf3d2dcd3fbf78f958a&quot;&gt;[email&amp;#160;protected]&lt;/a&gt;&lt;script data-cfhash='f9e31' type=&quot;text/javascript&quot;&gt;\n/* &lt;![CDATA[ */!function(){try{var t=&quot;currentScript&quot;in document?document.currentScript:function(){for(var t=document.getElementsByTagName(&quot;script&quot;),e=t.length;e--;)if(t[e].getAttribute(&quot;data-cfhash&quot;))return t[e]}();if(t&amp;&amp;t.previousSibling){var e,r,n,i,c=t.previousSibling,a=c.getAttribute(&quot;data-cfemail&quot;);if(a){for(e=&quot;&quot;,r=parseInt(a.substr(0,2),16),n=2;a.length-n;n+=2)i=parseInt(a.substr(n,2),16)^r,e+=String.fromCharCode(i);e=document.createTextNode(e),c.parentNode.replaceChild(e,c)}t.parentNode.removeChild(t);}}catch(u){}}()/* ]]&gt; */&lt;/script&gt;\nFormat settings, CABAC         : Yes\nFormat settings, ReFrames      : 4 frames\nCodec ID                       : V_MPEG4/ISO/AVC\nDuration                       : 1h 55mn\nBit rate                       : 8 350 Kbps\nWidth                          : 1 920 pixels\nHeight                         : 1 040 pixels\nDisplay aspect ratio           : 1.85:1\nFrame rate mode                : Constant\nFrame rate                     : 24.000 fps\nColor space                    : YUV\nChroma subsampling             : 4:2:0\nBit depth                      : 8 bits\nScan type                      : Progressive\nBits/(Pixel*Frame)             : 0.174\nStream size                    : 6.57 GiB (83%)\nTitle                          : X264\nWriting library                : x264 core 140 r2377 1ca7bb9\nEncoding settings              : cabac=1 / ref=4 / deblock=1:0:0 / analyse=0x3:0x133 / me=umh / subme=7 / psy=1 / psy_rd=1.00:0.00 / mixed_ref=1 / me_range=16 / chroma_me=1 / trellis=1 / 8x8dct=1 / cqm=0 / deadzone=21,11 / fast_pskip=0 / chroma_qp_offset=-2 / threads=12 / lookahead_threads=2 / sliced_threads=0 / nr=0 / decimate=1 / interlaced=0 / bluray_compat=0 / constrained_intra=0 / bframes=3 / b_pyramid=2 / b_adapt=1 / b_bias=0 / direct=1 / weightb=1 / open_gop=0 / weightp=2 / keyint=250 / keyint_min=23 / scenecut=40 / intra_refresh=0 / rc_lookahead=40 / rc=2pass / mbtree=1 / bitrate=8350 / ratetol=1.0 / qcomp=0.60 / qpmin=0 / qpmax=69 / qpstep=4 / cplxblur=20.0 / qblur=0.5 / ip_ratio=1.40 / aq=1:1.00\nLanguage                       : English\nDefault                        : Yes\nForced                         : No\n\nAudio\n=====\nID                             : 2\nFormat                         : DTS\nFormat/Info                    : Digital Theater Systems\nCodec ID                       : A_DTS\nDuration                       : 1h 55mn\nBit rate mode                  : Constant\nBit rate                       : 1 510 Kbps\nChannel(s)                     : 6 channels\nChannel positions              : Front: L C R, Side: L R, LFE\nSampling rate                  : 48.0 KHz\nBit depth                      : 24 bits\nCompression mode               : Lossy\nStream size                    : 1.22 GiB (15%)\nTitle                          : DTS\nLanguage                       : English\nDefault                        : Yes\nForced                         : No\n\nText\n====\nID                             : 3\nFormat                         : UTF-8\nCodec ID                       : S_TEXT/UTF8\nCodec ID/Info                  : UTF-8 Plain Text\nTitle                          : English\nLanguage                       : English\nDefault                        : Yes\nForced                         : Yes\n\nMenu\n====\n...","torrent":{"xt":"urn:btih:275a914bc692a85c95f1f7f1a356ed55d510a31d","amp;dn":"On.the.Job.2013.LIMITED.1080p.BluRay.x264-ROVERS","amp;tr":["udp%3A%2F%2Ftracker.openbittorrent.com%3A80","udp%3A%2F%2Fopen.demonii.com%3A1337","udp%3A%2F%2Ftracker.coppersurfer.tk%3A6969","udp%3A%2F%2Fexodus.desync.com%3A6969"],"infoHash":"275a914bc692a85c95f1f7f1a356ed55d510a31d","infoHashBuffer":{"type":"Buffer","data":[39,90,145,75,198,146,168,92,149,241,247,241,163,86,237,85,213,16,163,29]},"announce":[],"urlList":[]}}